<?xml version="1.0" encoding="UTF-8"?>
<svg xmlns="http://www.w3.org/2000/svg" xmlns:xlink="http://www.w3.org/1999/xlink" width="2625" height="1875" viewBox="0 0 2625 1875">

<path fill-rule="nonzero" fill="rgb(100%, 99.21875%, 98.4375%)" fill-opacity="1" d="M 1780.570312 1436.835938 C 1753.128906 1437.082031 1725.691406 1439.359375 1698.71875 1443.421875 C 1590.789062 1459.664062 1488.71875 1502.417969 1390.328125 1549.652344 C 1291.941406 1596.882812 1195.601562 1649.117188 1092.980469 1686.253906 C 990.351562 1723.394531 879.652344 1745.105469 771.765625 1728.621094 C 679.949219 1714.585938 594.792969 1673.835938 508.019531 1640.707031 C 346.160156 1578.914062 169.824219 1543.199219 -1.515625 1557.457031 L -1.515625 1888.441406 L 2625.128906 1888.441406 L 2625.128906 1672.25 C 2605.570312 1679.96875 2585.839844 1687.238281 2565.808594 1693.695312 C 2519.289062 1708.683594 2471.109375 1719.386719 2422.269531 1721.359375 C 2373.441406 1723.335938 2323.828125 1716.371094 2278.859375 1697.21875 C 2227.820312 1675.480469 2184.570312 1639.050781 2143.570312 1601.683594 C 2102.558594 1564.3125 2062.5 1525.15625 2015.128906 1496.28125 C 1945.230469 1453.679688 1862.898438 1436.105469 1780.570312 1436.835938 Z M 1780.570312 1436.835938 "/>
<path fill-rule="nonzero" fill="rgb(93.359375%, 84.375%, 77.734375%)" fill-opacity="1" d="M -1.515625 0.671875 L -1.515625 964.507812 C 141.132812 903.175781 273.464844 815.820312 376.148438 699.648438 C 443.648438 623.28125 497.46875 535.769531 563.21875 457.890625 C 628.96875 380 710.558594 309.910156 809.441406 285.191406 C 903.660156 261.640625 1003 281.609375 1096.578125 307.578125 C 1190.160156 333.558594 1283.769531 365.789062 1380.878906 366.828125 C 1458.96875 367.671875 1537.261719 347.691406 1605.171875 309.121094 C 1673.078125 270.558594 1730.410156 213.460938 1768.859375 145.480469 C 1794.140625 100.769531 1811.128906 51.410156 1819 0.671875 Z M -1.515625 0.671875 "/>
<path fill-rule="nonzero" fill="rgb(93.75%, 91.40625%, 89.451599%)" fill-opacity="1" d="M 1780.570312 1506.792969 C 1753.128906 1507.035156 1725.691406 1509.316406 1698.71875 1513.375 C 1590.789062 1529.617188 1488.71875 1572.371094 1390.328125 1619.605469 C 1291.941406 1666.839844 1195.601562 1719.070312 1092.980469 1756.210938 C 990.351562 1793.351562 879.652344 1815.0625 771.765625 1798.574219 C 679.949219 1784.542969 594.792969 1743.789062 508.019531 1710.660156 C 346.160156 1648.867188 169.824219 1613.152344 -1.515625 1627.410156 L -1.515625 1888.441406 L 2625.128906 1888.441406 L 2625.128906 1742.207031 C 2605.570312 1749.921875 2585.839844 1757.191406 2565.808594 1763.648438 C 2519.289062 1778.640625 2471.109375 1789.339844 2422.269531 1791.316406 C 2373.441406 1793.289062 2323.828125 1786.324219 2278.859375 1767.175781 C 2227.820312 1745.4375 2184.570312 1709.003906 2143.570312 1671.636719 C 2102.558594 1634.269531 2062.5 1595.109375 2015.128906 1566.234375 C 1945.230469 1523.632812 1862.898438 1506.0625 1780.570312 1506.792969 Z M 1780.570312 1506.792969 "/>
<path fill-rule="nonzero" fill="rgb(92.576599%, 93.75%, 89.451599%)" fill-opacity="1" d="M 2258.089844 0.671875 C 2257.140625 5.269531 2256.109375 9.839844 2255 14.390625 C 2237.738281 84.589844 2200.871094 149.160156 2153.269531 203.570312 C 2108.140625 255.148438 2052.890625 298.78125 2017.878906 357.710938 C 2000.378906 387.171875 1988.289062 420.460938 1987.421875 454.730469 C 1986.550781 488.980469 1997.671875 524.210938 2021.398438 548.941406 C 2036.710938 564.890625 2056.578125 575.949219 2077.488281 583.121094 C 2098.390625 590.289062 2120.390625 593.75 2142.378906 596.03125 C 2186.339844 600.609375 2231.820312 600.929688 2272.589844 618.019531 C 2310.570312 633.929688 2341.660156 663.558594 2364.890625 697.570312 C 2388.121094 731.589844 2404.078125 770 2418.140625 808.710938 C 2432.199219 847.429688 2444.570312 886.828125 2461.429688 924.40625 C 2478.289062 961.988281 2499.96875 998.054688 2530.050781 1026.1875 C 2556.878906 1051.285156 2589.839844 1069.191406 2625.128906 1079.601562 L 2625.128906 0.671875 Z M 2258.089844 0.671875 "/>
<path fill-rule="nonzero" fill="rgb(38.818359%, 52.146912%, 34.910583%)" fill-opacity="1" d="M 470.652344 1333.894531 C 448.242188 1334.3125 402.601562 1355.429688 353.59375 1392.175781 C 355.214844 1424.480469 364.667969 1457.207031 387.1875 1490.644531 C 352.164062 1474.402344 344.683594 1455.636719 328.222656 1412.40625 C 295.441406 1440.152344 262.6875 1474.34375 235.675781 1513.5625 C 234.765625 1562.636719 267.070312 1628.292969 359.992188 1658.886719 C 290.863281 1665.46875 226.203125 1629.203125 205.878906 1564.039062 C 184.761719 1606.640625 171.601562 1653.546875 171.894531 1703.375 C 194.636719 1727.890625 229.644531 1750.574219 279.574219 1766.738281 C 244.515625 1767.78125 206.828125 1758.726562 174.675781 1740.984375 C 181.453125 1788.320312 200.921875 1837.839844 237.492188 1888.441406 L 452.933594 1888.441406 C 498.542969 1855.671875 529.558594 1816.367188 549.46875 1773.980469 C 520.71875 1772.476562 491.746094 1762.347656 466.324219 1744.253906 C 504.800781 1747.648438 537.199219 1744.621094 563.800781 1737.347656 C 577.820312 1693.113281 581.539062 1646.769531 578.53125 1601.828125 C 533.171875 1619.777344 476.710938 1612.523438 428.742188 1590.351562 C 495.160156 1600.703125 543.289062 1588.011719 574.6875 1565.707031 C 567.105469 1513.617188 551.441406 1464.894531 533.621094 1425.453125 C 513.40625 1439.472656 497 1443.269531 467.390625 1443.0625 C 492.425781 1436.277344 510.96875 1423.824219 525.355469 1408.308594 C 506.175781 1370.140625 485.679688 1342.949219 470.652344 1333.894531 Z M 470.652344 1333.894531 "/>
<path fill-rule="nonzero" fill="rgb(45.092773%, 58.789062%, 38.035583%)" fill-opacity="1" d="M 372.449219 1378.675781 C 366.246094 1382.90625 359.953125 1387.40625 353.59375 1392.175781 C 354.691406 1414.027344 359.394531 1436.066406 369.28125 1458.398438 C 382.046875 1484.03125 398.464844 1504.292969 422.625 1513.136719 C 392.15625 1473.046875 372.015625 1420.777344 372.449219 1378.675781 Z M 422.625 1513.136719 L 404.140625 1582.144531 C 412.636719 1585.722656 421.328125 1588.429688 430.160156 1590.546875 C 495.835938 1600.496094 543.515625 1587.847656 574.6875 1565.707031 C 571.359375 1542.847656 566.417969 1520.714844 560.476562 1499.652344 C 515.902344 1512.617188 470.046875 1517.6875 422.625 1513.136719 Z M 244.980469 1500.617188 C 241.820312 1504.886719 238.699219 1509.203125 235.675781 1513.597656 C 234.765625 1562.671875 267.070312 1628.328125 359.992188 1658.921875 C 358.402344 1659.085938 356.816406 1659.160156 355.234375 1659.28125 C 363.886719 1660.75 373.09375 1661.476562 382.945312 1661.269531 C 326.964844 1622.953125 276.292969 1577.480469 248.875 1500.660156 L 248.875 1500.617188 Z M 570.28125 1713.660156 C 502.589844 1732.554688 434.164062 1729.574219 365.703125 1725.570312 C 399.0625 1735.296875 434.546875 1742.152344 473.179688 1744.734375 C 474.394531 1744.898438 475.621094 1744.917969 476.824219 1744.980469 C 479.441406 1745.148438 482.089844 1745.234375 484.734375 1745.347656 C 515.222656 1746.472656 541.570312 1743.421875 563.800781 1737.339844 C 566.28125 1729.507812 568.421875 1721.605469 570.28125 1713.660156 Z M 195.710938 1815.207031 C 205.921875 1839.277344 219.730469 1863.730469 237.578125 1888.441406 L 315.457031 1888.441406 C 319.6875 1874.484375 323.992188 1860.433594 328.523438 1846.136719 C 280.242188 1850.769531 235.890625 1839.253906 195.710938 1815.207031 Z M 195.710938 1815.207031 "/>
<path fill-rule="nonzero" fill="rgb(31.762695%, 44.309998%, 30.589294%)" fill-opacity="1" d="M 434.703125 1343.683594 C 420.828125 1349.546875 404.867188 1357.945312 387.785156 1368.652344 C 395.789062 1416.371094 415.597656 1443.335938 433.976562 1472.8125 C 430.519531 1484.796875 426.578125 1498.375 422.421875 1512.675781 C 404.042969 1469.496094 384.457031 1427.242188 377.597656 1375.242188 C 372.914062 1378.351562 368.175781 1381.59375 363.378906 1385.019531 C 378.351562 1442.875 401.453125 1474.308594 422.40625 1512.746094 C 417.761719 1528.714844 413.183594 1544.472656 407.605469 1563.511719 C 352.554688 1540.058594 320.511719 1498.3125 291.085938 1446.863281 C 289.699219 1448.269531 288.332031 1449.75 286.953125 1451.183594 C 314.230469 1511.292969 353.121094 1552.492188 404.957031 1572.578125 C 404.859375 1572.960938 404.675781 1573.453125 404.574219 1573.816406 C 348.546875 1548.273438 320.351562 1518.136719 283.613281 1454.667969 C 283.425781 1454.863281 283.234375 1455.058594 283.042969 1455.257812 C 312.539062 1514.410156 345.304688 1552.824219 403.6875 1576.847656 C 402.34375 1581.417969 400.566406 1587.394531 399.167969 1592.136719 C 349.996094 1566.375 308.535156 1526.105469 278.875 1459.679688 C 277.859375 1460.789062 276.867188 1461.921875 275.859375 1463.035156 C 303.339844 1525.207031 342.328125 1572.304688 396.921875 1599.734375 C 391.308594 1618.804688 385.582031 1638.234375 379.101562 1660.109375 C 356.886719 1653.726562 334.683594 1646.78125 313.039062 1637.769531 C 326.59375 1645.851562 342.160156 1653.011719 359.980469 1658.878906 C 290.855469 1665.457031 226.195312 1629.191406 205.871094 1564.03125 C 199.160156 1577.570312 193.257812 1591.550781 188.332031 1605.917969 C 240.910156 1667.804688 303.128906 1687.75 366.820312 1701.4375 C 362.738281 1715.175781 358.082031 1730.742188 353.679688 1745.492188 C 292.3125 1723.308594 231.957031 1697.347656 175.515625 1656.785156 C 174.195312 1664.960938 173.25 1673.246094 172.644531 1681.609375 C 228.042969 1724.917969 282.847656 1760.761719 342.347656 1783.441406 C 341.367188 1786.71875 340.605469 1789.339844 339.605469 1792.664062 C 285.308594 1769.351562 229.171875 1746.976562 180.023438 1711.550781 C 202.6875 1732.894531 235.230469 1752.378906 279.558594 1766.730469 C 276.453125 1766.898438 273.320312 1766.730469 270.179688 1766.730469 C 292.847656 1777.105469 315.886719 1786.460938 338.683594 1795.703125 C 337.210938 1800.628906 336.105469 1804.390625 334.59375 1809.417969 C 282.183594 1803.4375 230.820312 1788.390625 180.015625 1768.386719 C 182.332031 1777.851562 185.214844 1787.394531 188.613281 1797.003906 C 232.945312 1814.726562 278.699219 1830.792969 327.710938 1832.253906 C 322.464844 1849.726562 316.535156 1869.367188 310.785156 1888.425781 L 320.058594 1888.425781 L 323.289062 1876.742188 C 342.46875 1881.75 359.492188 1885.660156 375.136719 1888.425781 L 452.734375 1888.425781 C 484.605469 1865.542969 509.445312 1839.511719 528.257812 1811.425781 C 462.777344 1823.222656 401.398438 1819.757812 341.621094 1810.273438 L 382.011719 1663.839844 L 382.925781 1661.210938 L 382.757812 1661.210938 L 395.847656 1613.722656 C 464.679688 1641.171875 521.027344 1646.523438 579.066406 1647.101562 C 579.53125 1635.839844 579.519531 1624.605469 579.066406 1613.421875 C 519.808594 1622.042969 460.636719 1611.71875 401.5 1593.253906 L 418.269531 1532.46875 C 467.980469 1531.050781 516.941406 1525.933594 565.566406 1519.207031 C 565.332031 1518.21875 565.101562 1517.242188 564.859375 1516.261719 C 516.960938 1521.175781 467.820312 1525.246094 419.988281 1526.226562 L 439.011719 1457.253906 C 451.59375 1452.644531 464.296875 1448.15625 476.261719 1442.976562 C 473.414062 1442.976562 470.503906 1443.140625 467.382812 1443.140625 C 492.417969 1436.351562 510.960938 1423.902344 525.347656 1408.382812 C 522.710938 1403.140625 520.046875 1398.148438 517.378906 1393.335938 C 502.871094 1399.847656 479.414062 1410.65625 451.53125 1411.953125 L 457.226562 1391.289062 C 452.722656 1407.390625 445.535156 1432.613281 436.417969 1464.324219 C 433.132812 1425.433594 431.214844 1385.890625 434.683594 1343.765625 Z M 465.714844 1360.46875 L 457.246094 1391.203125 C 463.207031 1369.875 465.714844 1360.46875 465.714844 1360.46875 Z M 568.164062 1530.199219 C 543.902344 1537.527344 517.453125 1536.730469 491.949219 1539.4375 C 517.871094 1538.859375 544.359375 1540.664062 569.589844 1537.140625 C 569.113281 1534.824219 568.664062 1532.492188 568.164062 1530.199219 Z M 572.6875 1702.402344 C 503.148438 1729.449219 434.425781 1727.625 365.703125 1725.570312 C 434.425781 1733.03125 503.105469 1739.601562 570.28125 1713.660156 C 571.15625 1709.917969 571.945312 1706.164062 572.6875 1702.402344 Z M 220.890625 1863.625 C 223.679688 1868.128906 226.601562 1872.648438 229.652344 1877.171875 C 238.796875 1881.277344 248.007812 1885.03125 257.304688 1888.441406 L 279.6875 1888.441406 C 259.460938 1881.605469 239.910156 1873.234375 220.890625 1863.625 Z M 220.890625 1863.625 "/>
<path fill-rule="nonzero" fill="rgb(44.309998%, 52.146912%, 34.910583%)" fill-opacity="1" d="M 771.542969 1552.734375 C 755.238281 1552.875 737.28125 1554 718.277344 1556.285156 C 703.527344 1585.070312 695.359375 1618.148438 698.140625 1658.367188 C 675.929688 1626.789062 678.832031 1606.792969 686.195312 1561.128906 C 643.929688 1568.761719 598.46875 1582 555.464844 1602.457031 C 530.144531 1644.503906 525.292969 1717.515625 590.46875 1790.46875 C 527.3125 1761.605469 489.445312 1697.871094 504.425781 1631.277344 C 464.835938 1657.613281 429.980469 1691.652344 405.316406 1734.957031 C 412.757812 1767.558594 431.738281 1804.695312 466.894531 1843.660156 C 436.007812 1827.039062 407.902344 1800.351562 388.929688 1768.90625 C 375.046875 1803.527344 367.246094 1843.207031 367.480469 1888.441406 L 786.941406 1888.441406 C 794.722656 1876.050781 801.871094 1863.320312 808.253906 1850.324219 C 760 1843.1875 714.726562 1808.679688 684.273438 1765.492188 C 736.617188 1807.667969 784.640625 1820.738281 822.988281 1817.121094 C 842.464844 1768.222656 853.265625 1718.195312 857.554688 1675.128906 C 833.039062 1677.160156 816.929688 1672.25 791.390625 1657.265625 C 816.46875 1663.90625 838.742188 1662.386719 858.960938 1656.136719 C 861.4375 1613.496094 857.28125 1579.699219 848.792969 1564.347656 C 835.308594 1556.890625 807.417969 1552.425781 771.542969 1552.734375 Z M 771.542969 1552.734375 "/>
<path fill-rule="nonzero" fill="rgb(49.414062%, 58.789062%, 38.035583%)" fill-opacity="1" d="M 741.359375 1554.03125 C 733.871094 1554.59375 726.167969 1555.335938 718.277344 1556.285156 C 708.300781 1575.757812 701.347656 1597.210938 698.746094 1621.492188 C 696.988281 1650.074219 701.074219 1675.820312 717.578125 1695.5625 C 711.234375 1645.609375 719.933594 1590.273438 741.359375 1554.03125 Z M 717.578125 1695.5625 L 667.066406 1746.074219 C 672.636719 1753.421875 678.8125 1760.117188 685.398438 1766.363281 C 737.304688 1807.816406 784.917969 1820.710938 822.988281 1817.121094 C 831.535156 1795.664062 838.316406 1774.019531 843.703125 1752.8125 C 798.617188 1741.75 756.367188 1723.214844 717.578125 1695.5625 Z M 570.015625 1595.875 C 565.144531 1597.988281 560.285156 1600.167969 555.464844 1602.457031 C 530.144531 1644.503906 525.292969 1717.515625 590.46875 1790.46875 C 589.015625 1789.808594 587.585938 1789.09375 586.164062 1788.402344 C 592.921875 1794.007812 600.53125 1799.234375 609.167969 1803.980469 C 579.847656 1742.808594 558.699219 1678.082031 573.363281 1597.847656 Z M 370.023438 1843.714844 C 368.269531 1857.972656 367.429688 1872.882812 367.503906 1888.441406 L 402.304688 1888.441406 C 389.898438 1875.070312 379.152344 1860.109375 370.023438 1843.714844 Z M 562.066406 1851.074219 C 574.378906 1863.9375 587.578125 1876.417969 601.824219 1888.441406 L 621.117188 1888.441406 C 601.132812 1876.550781 581.550781 1863.898438 562.066406 1851.074219 Z M 562.066406 1851.074219 "/>
<path fill-rule="nonzero" fill="rgb(38.035583%, 44.309998%, 30.589294%)" fill-opacity="1" d="M 774.347656 1552.734375 C 769.589844 1552.734375 764.6875 1552.835938 759.648438 1553.019531 C 742.722656 1598.347656 746.398438 1631.601562 747.574219 1666.320312 C 738.589844 1674.96875 728.382812 1684.753906 717.636719 1695.0625 C 723.308594 1648.476562 727.472656 1602.09375 747.53125 1553.632812 C 741.921875 1553.976562 736.191406 1554.421875 730.324219 1554.980469 C 714.363281 1612.570312 718.660156 1651.347656 717.585938 1695.113281 C 705.582031 1706.621094 693.738281 1717.980469 679.386719 1731.679688 C 643.441406 1683.839844 636.550781 1631.660156 636.792969 1572.394531 C 634.886719 1572.921875 632.976562 1573.519531 631.0625 1574.074219 C 624.632812 1639.773438 637.707031 1694.894531 672.558594 1738.210938 C 672.285156 1738.492188 671.882812 1738.820312 671.609375 1739.097656 C 635.859375 1688.964844 626.511719 1648.761719 626.425781 1575.425781 C 626.160156 1575.425781 625.898438 1575.589844 625.632812 1575.65625 C 621.601562 1641.632812 630.773438 1691.289062 669.320312 1741.285156 C 665.875 1744.570312 661.347656 1748.859375 657.765625 1752.269531 C 628.0625 1705.371094 612.289062 1649.761719 619.816406 1577.40625 C 618.390625 1577.855469 616.960938 1578.34375 615.53125 1578.808594 C 608.242188 1646.390625 618.453125 1706.671875 652.019531 1757.726562 C 637.625 1771.433594 622.953125 1785.402344 606.402344 1801.105469 C 590.355469 1784.472656 574.59375 1767.34375 560.359375 1748.714844 C 568.054688 1762.492188 577.960938 1776.484375 590.460938 1790.472656 C 527.304688 1761.609375 489.4375 1697.875 504.417969 1631.28125 C 491.835938 1639.652344 479.734375 1648.8125 468.285156 1658.789062 C 482.875 1738.671875 526.789062 1787.054688 575.105469 1830.753906 C 564.703125 1840.605469 552.878906 1851.757812 541.691406 1862.332031 C 499.636719 1812.4375 460.355469 1759.777344 431.753906 1696.429688 C 426.527344 1702.851562 421.558594 1709.546875 416.855469 1716.488281 C 442.984375 1781.222656 472.304688 1839.277344 512.050781 1888.445312 L 523.1875 1888.445312 L 607.050781 1805.808594 L 609.160156 1803.992188 C 609.113281 1803.992188 609.074219 1803.820312 609.023438 1803.820312 L 644.105469 1769.253906 C 689.320312 1826.589844 734.78125 1859.257812 783.910156 1888.445312 L 786.890625 1888.445312 C 792.609375 1879.339844 797.96875 1870.054688 802.929688 1860.597656 C 747.300781 1838.433594 701.21875 1799.902344 659.238281 1754.34375 L 704.152344 1710.082031 C 747.917969 1733.703125 792.875 1753.769531 838.351562 1772.257812 C 838.632812 1771.285156 838.921875 1770.320312 839.203125 1769.347656 C 795.265625 1749.65625 750.671875 1728.605469 708.757812 1705.542969 L 759.71875 1655.328125 C 772.917969 1657.628906 786.167969 1660.082031 799.121094 1661.582031 C 796.613281 1660.226562 794.070312 1658.816406 791.375 1657.234375 C 816.453125 1663.875 838.726562 1662.359375 858.945312 1656.105469 C 859.289062 1650.246094 859.484375 1644.597656 859.578125 1639.097656 C 843.757812 1637.476562 818.042969 1635.105469 793.246094 1622.289062 L 808.511719 1607.242188 C 796.5625 1618.9375 777.714844 1637.191406 753.964844 1660.09375 C 770.558594 1624.78125 788.675781 1589.589844 812.730469 1554.855469 C 801.527344 1553.460938 788.601562 1552.714844 774.347656 1552.738281 Z M 812.730469 1554.851562 L 812.773438 1554.851562 L 812.773438 1554.808594 L 812.773438 1554.851562 Z M 831.226562 1584.902344 L 808.527344 1607.273438 C 824.359375 1591.785156 831.226562 1584.902344 831.226562 1584.902344 Z M 408.273438 1746.109375 C 417.226562 1775.925781 435.671875 1809.070312 466.886719 1843.660156 C 464.152344 1842.191406 461.445312 1840.609375 458.757812 1838.980469 C 470.761719 1855.875 483.359375 1872.234375 495.953125 1888.441406 L 500.148438 1888.441406 C 466.519531 1843.628906 431.78125 1798.378906 408.273438 1746.109375 Z M 764.464844 1753 C 787.203125 1765.464844 809.242188 1780.261719 832.847656 1789.828125 C 833.597656 1787.585938 834.375 1785.339844 835.085938 1783.101562 C 810.414062 1777.316406 787.90625 1763.40625 764.464844 1753 Z M 379.835938 1795.335938 C 377.113281 1804.691406 374.839844 1814.402344 372.980469 1824.421875 C 390.554688 1846.75 408.875 1868.800781 429.613281 1888.441406 L 468.492188 1888.441406 C 436.214844 1861.085938 407.046875 1829.535156 379.835938 1795.335938 Z M 562.066406 1851.074219 C 579.59375 1863.898438 597.164062 1876.644531 615.222656 1888.441406 L 625.207031 1888.441406 C 603.699219 1876.734375 582.867188 1863.925781 562.066406 1851.074219 Z M 562.066406 1851.074219 "/>
<path fill-rule="nonzero" fill="rgb(44.309998%, 52.146912%, 34.910583%)" fill-opacity="1" d="M -1.515625 1284.394531 L -1.515625 1493.171875 C 0.621094 1494.28125 2.761719 1495.390625 4.964844 1496.472656 C 2.726562 1496.667969 0.601562 1496.785156 -1.515625 1496.902344 L -1.515625 1692.1875 C 22.074219 1694.3125 48.371094 1692.929688 77.363281 1686.878906 C 53.015625 1704.203125 25.953125 1715.402344 -1.515625 1720.101562 L -1.515625 1854.820312 C 17.113281 1853.796875 37.113281 1851.160156 58.570312 1846.574219 C 40.40625 1857.796875 19.964844 1866.707031 -1.515625 1872.867188 L -1.515625 1888.445312 L 301.339844 1888.445312 C 336.414062 1820.355469 347.5 1754.453125 342.28125 1692.78125 C 311.621094 1708.40625 275.585938 1715.238281 238.457031 1711.703125 C 280.3125 1692.21875 312.03125 1669.730469 335.21875 1646.296875 C 323.296875 1592.132812 299.449219 1541.925781 269.476562 1497.207031 C 233.25 1542.890625 170.46875 1569.132812 107.566406 1574.847656 C 182.503906 1545.875 224.746094 1503.96875 243.917969 1462.117188 C 204.9375 1412.730469 159.605469 1371.660156 117.585938 1341.484375 C 105.039062 1368.070312 90.324219 1381.804688 59.550781 1399.28125 C 81.414062 1377.296875 93.167969 1353.335938 98.785156 1328.671875 C 56.640625 1300.964844 19.589844 1285.148438 -1.515625 1284.394531 Z M -1.515625 1284.394531 "/>
<path fill-rule="nonzero" fill="rgb(49.414062%, 58.789062%, 38.035583%)" fill-opacity="1" d="M 189.730469 1402.242188 C 151.335938 1442.300781 106.894531 1474.960938 55.089844 1498.59375 L 77.1875 1581.054688 C 88.125 1579.699219 98.742188 1577.289062 109.148438 1574.203125 C 183.078125 1545.253906 224.882812 1503.675781 243.917969 1462.125 C 226.8125 1440.453125 208.464844 1420.492188 189.730469 1402.242188 Z M 55.089844 1498.59375 C 35.425781 1490.34375 16.226562 1479.695312 -1.515625 1467.484375 L -1.515625 1490.867188 C 16.976562 1498.601562 35.789062 1501.960938 55.089844 1498.59375 Z M 327.777344 1617.902344 C 269 1677.914062 196.386719 1715.726562 123.128906 1752.5 C 163.472656 1742.628906 204.300781 1728.511719 245.835938 1708.097656 C 247.148438 1707.46875 248.46875 1706.84375 249.753906 1706.1875 C 252.554688 1704.785156 255.359375 1703.300781 258.167969 1701.839844 C 290.394531 1684.78125 315.84375 1665.886719 335.21875 1646.308594 C 333.105469 1636.710938 330.601562 1627.246094 327.777344 1617.910156 Z M -1.515625 1658.644531 L -1.515625 1692.1875 C 22.074219 1694.3125 48.371094 1692.929688 77.363281 1686.878906 C 75.8125 1687.984375 74.230469 1689.039062 72.65625 1690.09375 C 82.5 1686.449219 92.449219 1681.703125 102.523438 1675.601562 C 67.503906 1672.910156 32.710938 1668.210938 -1.515625 1658.644531 Z M -1.515625 1658.644531 "/>
<path fill-rule="nonzero" fill="rgb(38.035583%, 44.309998%, 30.589294%)" fill-opacity="1" d="M 81.527344 1317.820312 C 70.398438 1333.234375 52.578125 1358.429688 24.492188 1376.4375 L 18.050781 1351.675781 C 23.011719 1371.039062 30.640625 1401.4375 40.148438 1439.691406 C 25.796875 1419.058594 11.773438 1397.949219 -1.515625 1375.765625 L -1.515625 1425.980469 C 13.246094 1434.8125 27.988281 1442.195312 42.742188 1450.058594 C 46.328125 1464.53125 50.355469 1480.941406 54.601562 1498.226562 C 35.808594 1484.09375 16.929688 1470.183594 -1.515625 1455.214844 L -1.515625 1465.226562 C 17.3125 1476.738281 35.808594 1486.816406 54.632812 1498.308594 C 59.371094 1517.613281 64.054688 1536.664062 69.65625 1559.703125 C 44.550781 1562.75 21.074219 1561.648438 -1.515625 1557.457031 L -1.515625 1569.753906 C 22.992188 1574.148438 47.601562 1574.507812 72.332031 1570.679688 C 72.445312 1571.125 72.558594 1571.753906 72.675781 1572.199219 C 45.253906 1574.839844 21.480469 1574.480469 -1.515625 1570.695312 L -1.515625 1575.207031 C 22.03125 1579.117188 46.628906 1579.480469 73.566406 1575.867188 C 74.90625 1581.398438 76.648438 1588.652344 78.035156 1594.394531 C 51.6875 1595.484375 25.222656 1593.386719 -1.515625 1587.363281 L -1.515625 1595.8125 C 25.152344 1602.46875 52.371094 1605.21875 80.242188 1603.601562 C 85.828125 1626.695312 91.515625 1650.238281 97.878906 1676.753906 C 71.070312 1683.421875 43.933594 1689.496094 16.144531 1693.105469 C 35.003906 1693.351562 55.402344 1691.484375 77.351562 1686.898438 C 53.011719 1704.222656 25.949219 1715.410156 -1.515625 1720.113281 L -1.515625 1751.671875 C 37.125 1748.355469 73.769531 1738.511719 109.871094 1726.867188 C 113.851562 1743.527344 118.332031 1762.421875 122.589844 1780.324219 C 81.742188 1787.617188 40.539062 1793.597656 -1.515625 1796.386719 L -1.515625 1832.507812 C 44.800781 1834.847656 89.683594 1833.417969 133.539062 1826.375 C 134.484375 1830.355469 135.265625 1833.535156 136.214844 1837.570312 C 90.800781 1842.960938 44.816406 1849.175781 -1.515625 1850.933594 L -1.515625 1854.8125 C 17.113281 1853.785156 37.097656 1851.191406 58.5625 1846.605469 C 55.402344 1848.558594 52.15625 1850.410156 48.867188 1852.21875 C 78.527344 1849.410156 107.96875 1845.332031 137.09375 1841.277344 C 138.511719 1847.257812 139.613281 1851.820312 141.054688 1857.925781 C 112.402344 1870.375 82.683594 1880.351562 52.140625 1888.441406 L 142.175781 1888.441406 C 143.976562 1887.515625 145.789062 1886.628906 147.574219 1885.664062 C 147.777344 1886.523438 148.023438 1887.570312 148.226562 1888.441406 L 287.886719 1888.441406 C 295.15625 1883.917969 301.992188 1879.097656 308.464844 1873.855469 C 329.210938 1829.464844 339.929688 1786.078125 342.71875 1744.261719 C 281.988281 1795.601562 216.375 1828.6875 148.832031 1854.597656 L 103.132812 1678.886719 L 102.511719 1675.609375 L 102.296875 1675.609375 L 87.476562 1618.636719 C 175.132812 1605.914062 236.660156 1577.78125 297.082031 1543.695312 C 290.832031 1531.761719 284.097656 1520.132812 276.945312 1508.832031 C 220.757812 1553.167969 153.335938 1577.839844 81.085938 1594.066406 L 62.121094 1521.128906 C 112.726562 1489.945312 160.355469 1455.390625 206.671875 1419.367188 C 205.835938 1418.492188 205.007812 1417.613281 204.171875 1416.746094 C 157.527344 1450.457031 109.089844 1484.035156 60.164062 1513.640625 L 38.648438 1430.871094 C 48.914062 1418.582031 59.371094 1406.351562 68.664062 1393.839844 C 65.761719 1395.621094 62.789062 1397.40625 59.539062 1399.25 C 81.402344 1377.265625 93.148438 1353.300781 98.765625 1328.640625 C 92.902344 1324.785156 87.164062 1321.207031 81.527344 1317.820312 Z M 215.929688 1429.269531 C 195.199219 1451.351562 167.355469 1466.332031 142.574219 1484.375 C 169.066406 1468.292969 197.554688 1454.316406 221.566406 1435.597656 C 219.691406 1433.484375 217.824219 1431.34375 215.929688 1429.269531 Z M 323.539062 1604.816406 C 267.722656 1674.371094 195.492188 1713.554688 123.128906 1752.5 C 198.722656 1719.148438 273.746094 1684.902344 327.777344 1617.902344 C 326.449219 1613.503906 325.019531 1609.152344 323.539062 1604.816406 Z M 323.539062 1604.816406 "/>
<path fill-rule="nonzero" fill="rgb(38.818359%, 52.146912%, 34.910583%)" fill-opacity="1" d="M 2154.570312 0.671875 C 2121.179688 29.628906 2093.019531 61.558594 2071.519531 91.5 C 2093.769531 102 2105.261719 114.300781 2119.890625 140.050781 C 2101.488281 121.761719 2081.441406 111.929688 2060.808594 107.21875 C 2037.351562 142.921875 2024.039062 174.269531 2023.71875 191.808594 C 2035.28125 211 2076.378906 239.980469 2132.710938 264.050781 C 2159.878906 246.5 2183.488281 221.941406 2201.191406 185.71875 C 2204.640625 224.171875 2192.128906 240.03125 2162.921875 275.890625 C 2203.339844 290.410156 2249.328125 301.691406 2296.808594 305.46875 C 2339.761719 281.71875 2380.460938 220.910156 2360.488281 125.148438 C 2400.75 181.71875 2401.691406 255.851562 2355.421875 306.03125 C 2402.871094 303.019531 2450.070312 290.960938 2493.070312 265.789062 C 2502.929688 233.839844 2505.070312 192.191406 2494.109375 140.871094 C 2512.539062 170.710938 2523.539062 207.871094 2524.25 244.589844 C 2564.160156 213.238281 2599.039062 168.210938 2625.128906 105.730469 L 2625.128906 6.078125 C 2623.128906 4.25 2621.140625 2.441406 2619.140625 0.671875 L 2234.109375 0.671875 C 2252.558594 29.230469 2263.558594 64.519531 2266.769531 99.878906 C 2248.289062 52.101562 2223.53125 20.238281 2197.289062 0.671875 Z M 2154.570312 0.671875 "/>
<path fill-rule="nonzero" fill="rgb(45.092773%, 58.789062%, 38.035583%)" fill-opacity="1" d="M 2154.628906 0.671875 C 2143.261719 10.558594 2132.46875 20.761719 2122.351562 31.140625 C 2155.871094 63.261719 2183.191406 100.441406 2202.960938 143.78125 L 2271.949219 125.289062 C 2270.808594 116.140625 2268.808594 107.261719 2266.21875 98.558594 C 2247.808594 51.519531 2223.269531 20.058594 2197.289062 0.671875 Z M 2202.960938 143.78125 C 2183.46875 190.210938 2148.28125 233.78125 2111.601562 254.460938 C 2118.371094 257.710938 2125.398438 260.929688 2132.710938 264.050781 C 2151.089844 252.179688 2167.828125 237.070312 2182.21875 217.351562 C 2198.039062 193.480469 2207.378906 169.128906 2202.960938 143.78125 Z M 2368.789062 0.671875 C 2385.800781 28.480469 2400.699219 57.601562 2415.390625 86.859375 C 2408.441406 58.449219 2398.929688 29.761719 2385.929688 0.671875 Z M 2625.128906 38.570312 C 2596.75 45.410156 2568.171875 52.210938 2538.390625 58.769531 C 2566.539062 98.269531 2578.75 142.441406 2578.019531 189.261719 C 2595.730469 165.75 2611.609375 138.058594 2625.128906 105.691406 Z M 2351.058594 104.089844 C 2345.859375 171.730469 2331.808594 238.351562 2278.988281 300.5 L 2280.898438 303.890625 C 2286.179688 304.5 2291.480469 305.039062 2296.808594 305.460938 C 2339.761719 281.710938 2380.460938 220.898438 2360.488281 125.128906 C 2361.410156 126.441406 2362.300781 127.75 2363.179688 129.070312 C 2360.128906 120.839844 2356.160156 112.511719 2351.058594 104.078125 Z M 2351.058594 104.089844 "/>
<path fill-rule="nonzero" fill="rgb(31.762695%, 44.309998%, 30.589294%)" fill-opacity="1" d="M 2239.519531 0.671875 C 2259.839844 37.769531 2273.191406 78.859375 2282.878906 122.019531 L 2221.859375 137.890625 C 2195.761719 95.550781 2166.859375 55.699219 2136.730469 16.949219 C 2135.988281 17.648438 2135.25 18.339844 2134.519531 19.050781 C 2162.730469 58.070312 2190.828125 98.589844 2215.589844 139.53125 L 2146.351562 157.53125 C 2136.070312 148.941406 2125.820312 140.191406 2115.359375 132.410156 C 2116.851562 134.851562 2118.351562 137.328125 2119.890625 140.050781 C 2101.5 121.761719 2081.441406 111.929688 2060.808594 107.230469 C 2057.589844 112.140625 2054.589844 116.941406 2051.761719 121.660156 C 2064.648438 130.960938 2085.730469 145.871094 2100.800781 169.371094 L 2080.058594 174.769531 C 2096.25 170.621094 2121.699219 164.230469 2153.71875 156.269531 C 2121.679688 178.558594 2088.390625 200 2050.179688 218.058594 C 2062.191406 227.140625 2077.441406 236.75 2095.25 246.191406 C 2132.570312 215.398438 2146.019531 184.769531 2162.359375 154.109375 C 2174.46875 151.109375 2188.199219 147.730469 2202.660156 144.179688 C 2174.449219 181.691406 2147.660156 219.789062 2106.050781 251.730469 C 2111.089844 254.230469 2116.261719 256.710938 2121.628906 259.148438 C 2164.25 217.261719 2179.910156 181.53125 2202.730469 144.160156 C 2218.878906 140.199219 2234.808594 136.28125 2254.089844 131.601562 C 2261.308594 191 2241.179688 239.628906 2211.328125 290.839844 C 2213.25 291.328125 2215.210938 291.78125 2217.140625 292.25 C 2255.558594 238.578125 2271.789062 184.308594 2263.269531 129.371094 C 2263.640625 129.199219 2264.160156 129.160156 2264.539062 129.070312 C 2270.429688 190.359375 2258.421875 229.851562 2221.828125 293.398438 C 2222.101562 293.398438 2222.359375 293.558594 2222.628906 293.601562 C 2259.109375 238.480469 2275.988281 190.898438 2267.609375 128.328125 C 2272.230469 127.199219 2278.300781 125.75 2283.109375 124.589844 C 2285.378906 180.050781 2271.238281 236.101562 2228.539062 295 C 2230 295.328125 2231.488281 295.609375 2232.949219 295.921875 C 2273.058594 241.039062 2294.339844 183.730469 2290.800781 122.730469 C 2310.121094 118.058594 2329.820312 113.300781 2352 107.980469 C 2357.578125 130.410156 2362.679688 153.109375 2365.691406 176.359375 C 2365.910156 160.578125 2364.328125 143.519531 2360.5 125.148438 C 2400.761719 181.730469 2401.691406 255.859375 2355.421875 306.039062 C 2370.5 305.078125 2385.550781 303.199219 2400.449219 300.28125 C 2427.761719 223.808594 2413.921875 159.941406 2393.929688 97.941406 C 2407.871094 94.609375 2423.679688 90.871094 2438.660156 87.308594 C 2450.128906 151.539062 2457.820312 216.78125 2450.910156 285.941406 C 2458.648438 283 2466.308594 279.691406 2473.851562 276.03125 C 2483.660156 206.398438 2487.289062 141.011719 2477.179688 78.140625 C 2480.511719 77.351562 2483.171875 76.699219 2486.550781 75.898438 C 2493.511719 134.578125 2502.199219 194.390625 2496.089844 254.671875 C 2503.238281 224.371094 2503.839844 186.429688 2494.109375 140.871094 C 2495.738281 143.519531 2497.300781 146.230469 2498.808594 148.980469 C 2496.46875 124.171875 2493.039062 99.53125 2489.648438 75.171875 C 2494.648438 73.980469 2498.46875 73.058594 2503.570312 71.859375 C 2524.601562 120.230469 2537.25 172.238281 2545.328125 226.238281 C 2552.371094 219.5 2559.199219 212.238281 2565.820312 204.488281 C 2559 157.230469 2550.039062 109.589844 2526.789062 66.410156 C 2547.230469 61.578125 2570.46875 56.140625 2592.539062 50.949219 C 2601.109375 81.300781 2605.628906 112.101562 2607.359375 143.230469 C 2609.871094 138.558594 2612.320312 133.78125 2614.710938 128.871094 C 2611.929688 101.601562 2606.679688 75.109375 2598.589844 49.519531 C 2607.570312 47.410156 2616.578125 45.289062 2625.128906 43.269531 L 2625.128906 33.011719 L 2596.75 40.398438 C 2594.78125 26.761719 2591.800781 13.589844 2588.25 0.671875 L 2583.078125 0.671875 C 2587.679688 13.699219 2591.960938 27.011719 2595.898438 40.621094 L 2567.539062 47.988281 C 2562.671875 30.289062 2557.910156 14.75 2552.929688 0.671875 L 2472.410156 0.671875 C 2483.121094 21.890625 2492.421875 43.5 2500.800781 65.351562 L 2353.789062 103.578125 L 2351.058594 104.109375 C 2351.070312 104.109375 2351.089844 104.28125 2351.109375 104.28125 L 2303.441406 116.679688 C 2296.851562 71.28125 2285.308594 34.28125 2270.71875 0.671875 Z M 2365.101562 0.671875 C 2383.800781 28.351562 2399.628906 57.578125 2415.390625 86.859375 C 2402.410156 57.441406 2389.238281 28.160156 2373.261719 0.671875 Z M 2150.261719 4.5 C 2148.488281 6.070312 2146.699219 7.640625 2144.96875 9.21875 C 2163.441406 26.558594 2175.96875 49.859375 2191.070312 70.589844 C 2177.609375 48.429688 2165.921875 24.589844 2150.261719 4.5 Z M 2080.050781 174.769531 C 2058.601562 180.269531 2049.199219 182.789062 2049.199219 182.789062 Z M 2080.050781 174.769531 "/>
<path fill-rule="nonzero" fill="rgb(44.309998%, 52.146912%, 34.910583%)" fill-opacity="1" d="M 2624.910156 103.628906 C 2555.621094 104.78125 2499.5 124.859375 2454.46875 156.199219 C 2478.609375 171.871094 2498.640625 195.121094 2511.609375 223.5 C 2479.980469 201.328125 2450.421875 187.75 2423.738281 180.761719 C 2389.480469 212.050781 2363.089844 250.320312 2343.21875 290.75 C 2391.480469 297.890625 2436.75 332.398438 2467.210938 375.589844 C 2414.859375 333.410156 2366.839844 320.339844 2328.488281 323.949219 C 2309.019531 372.851562 2298.21875 422.878906 2293.929688 465.941406 C 2318.441406 463.910156 2334.550781 468.839844 2360.089844 483.820312 C 2335.011719 477.179688 2312.730469 478.691406 2292.519531 484.941406 C 2290.039062 527.570312 2294.199219 561.371094 2302.691406 576.730469 C 2322.300781 587.570312 2372.390625 592.109375 2433.199219 584.789062 C 2447.949219 556 2456.121094 522.929688 2453.339844 482.710938 C 2475.550781 514.28125 2472.640625 534.28125 2465.289062 579.941406 C 2507.550781 572.308594 2553.011719 559.070312 2596.019531 538.621094 C 2621.339844 496.570312 2626.191406 423.558594 2561.011719 350.609375 C 2587.539062 362.730469 2609.570312 381.019531 2625.128906 403.070312 L 2625.128906 103.628906 C 2625.058594 103.628906 2624.980469 103.628906 2624.910156 103.628906 Z M 2624.910156 103.628906 "/>
<path fill-rule="nonzero" fill="rgb(49.414062%, 58.789062%, 38.035583%)" fill-opacity="1" d="M 2423.738281 180.761719 C 2417.671875 186.300781 2411.859375 192.070312 2406.28125 198.019531 C 2474.351562 215.5 2532.128906 252.308594 2589.410156 290 C 2565.390625 264.898438 2538.078125 241.230469 2505.910156 219.671875 C 2504.910156 218.988281 2503.890625 218.300781 2502.878906 217.628906 C 2500.699219 216.191406 2498.449219 214.769531 2496.21875 213.351562 C 2470.371094 197.140625 2446.039062 186.601562 2423.738281 180.761719 Z M 2343.210938 323.410156 C 2338.160156 323.320312 2333.25 323.5 2328.488281 323.949219 C 2319.949219 345.410156 2313.160156 367.058594 2307.78125 388.261719 C 2352.859375 399.320312 2395.109375 417.859375 2433.898438 445.511719 L 2484.410156 395 C 2478.839844 387.648438 2472.671875 380.960938 2466.078125 374.710938 C 2420.660156 338.441406 2378.53125 324.03125 2343.210938 323.410156 Z M 2433.898438 445.511719 C 2440.25 495.46875 2431.550781 550.800781 2410.121094 587.039062 C 2417.609375 586.480469 2425.308594 585.738281 2433.199219 584.789062 C 2443.179688 565.320312 2450.121094 543.871094 2452.71875 519.589844 C 2454.480469 491.011719 2450.410156 465.25 2433.898438 445.511719 Z M 2542.308594 337.089844 C 2571.628906 398.269531 2592.78125 462.988281 2578.121094 543.230469 L 2581.46875 545.199219 C 2586.339844 543.089844 2591.199219 540.910156 2596.019531 538.621094 C 2621.339844 496.570312 2626.191406 423.558594 2561.011719 350.609375 C 2562.460938 351.269531 2563.878906 351.980469 2565.308594 352.671875 C 2558.550781 347.070312 2550.949219 341.839844 2542.308594 337.089844 Z M 2542.308594 337.089844 "/>
<path fill-rule="nonzero" fill="rgb(38.035583%, 44.309998%, 30.589294%)" fill-opacity="1" d="M 2599.800781 104.941406 C 2558.949219 108.46875 2523.039062 118.871094 2491.570312 134.339844 C 2542.238281 152.570312 2585.519531 178.179688 2625.128906 207.460938 L 2625.128906 117.191406 C 2616.78125 112.320312 2608.410156 108.25 2599.800781 104.941406 Z M 2406.28125 198.019531 C 2403.648438 200.820312 2401.089844 203.691406 2398.570312 206.570312 C 2472.308594 217.921875 2530.929688 253.859375 2589.410156 290 C 2533.628906 249.179688 2477.429688 209.140625 2406.28125 198.019531 Z M 2365.390625 251.308594 C 2359.359375 260.828125 2353.75 270.578125 2348.550781 280.488281 C 2404.179688 302.648438 2450.261719 341.179688 2492.25 386.738281 L 2447.328125 431 C 2403.558594 407.371094 2358.609375 387.308594 2313.128906 368.820312 C 2312.839844 369.789062 2312.558594 370.761719 2312.28125 371.730469 C 2356.21875 391.429688 2400.800781 412.46875 2442.71875 435.539062 L 2391.75 485.761719 C 2378.558594 483.460938 2365.308594 481 2352.359375 479.5 C 2354.871094 480.851562 2357.410156 482.261719 2360.109375 483.839844 C 2335.03125 477.199219 2312.75 478.71875 2292.539062 484.96875 C 2292.199219 490.828125 2292 496.480469 2291.898438 501.980469 C 2307.71875 503.601562 2333.441406 505.96875 2358.230469 518.789062 L 2342.96875 533.839844 C 2354.921875 522.140625 2373.761719 503.890625 2397.511719 480.980469 C 2380.910156 516.300781 2362.808594 551.5 2338.761719 586.230469 C 2353.699219 588.089844 2371.699219 588.789062 2391.828125 588.058594 C 2408.761719 542.730469 2405.078125 509.480469 2403.910156 474.761719 C 2412.890625 466.109375 2423.089844 456.320312 2433.839844 446.019531 C 2428.171875 492.601562 2424.011719 538.988281 2403.949219 587.449219 C 2409.558594 587.109375 2415.28125 586.660156 2421.140625 586.089844 C 2437.109375 528.511719 2432.820312 489.730469 2433.890625 445.960938 C 2445.898438 434.449219 2457.738281 423.101562 2472.089844 409.398438 C 2508.039062 457.230469 2514.921875 509.410156 2514.679688 568.679688 C 2516.589844 568.148438 2518.5 567.558594 2520.410156 567 C 2526.851562 501.308594 2513.769531 446.191406 2478.921875 402.871094 C 2479.199219 402.609375 2479.601562 402.261719 2479.871094 401.980469 C 2515.621094 452.109375 2524.96875 492.320312 2525.050781 565.648438 C 2525.320312 565.648438 2525.578125 565.480469 2525.851562 565.421875 C 2529.878906 499.441406 2520.710938 449.800781 2482.160156 399.800781 C 2485.609375 396.519531 2490.128906 392.21875 2493.71875 388.820312 C 2523.421875 435.710938 2539.191406 491.320312 2531.660156 563.679688 C 2533.089844 563.230469 2534.519531 562.730469 2535.949219 562.269531 C 2543.230469 494.691406 2533.019531 434.410156 2499.449219 383.351562 C 2513.851562 369.640625 2528.53125 355.679688 2545.078125 339.980469 C 2561.128906 356.609375 2576.878906 373.730469 2591.121094 392.359375 C 2583.429688 378.589844 2573.519531 364.589844 2561.019531 350.609375 C 2587.539062 362.71875 2609.570312 381.011719 2625.128906 403.058594 L 2625.128906 360 C 2610.179688 342.058594 2593.570312 325.871094 2576.378906 310.320312 C 2586.78125 300.46875 2598.601562 289.320312 2609.789062 278.75 C 2614.949219 284.878906 2620.070312 291.050781 2625.128906 297.269531 L 2625.128906 255.75 L 2544.429688 335.269531 L 2542.320312 337.089844 C 2542.371094 337.089844 2542.410156 337.261719 2542.460938 337.261719 L 2507.371094 371.828125 C 2461.480469 313.640625 2415.359375 280.828125 2365.390625 251.308594 Z M 2338.761719 586.230469 C 2338.75 586.230469 2338.730469 586.230469 2338.71875 586.230469 L 2338.730469 586.28125 C 2338.738281 586.28125 2338.75 586.230469 2338.761719 586.230469 Z M 2318.621094 351.25 C 2317.878906 353.488281 2317.109375 355.730469 2316.390625 357.96875 C 2341.070312 363.761719 2363.570312 377.671875 2387 388.070312 C 2364.269531 375.609375 2342.230469 360.808594 2318.621094 351.25 Z M 2342.949219 533.800781 C 2327.121094 549.289062 2320.25 556.171875 2320.25 556.171875 Z M 2342.949219 533.800781 "/>
<path fill-rule="nonzero" fill="rgb(44.309998%, 52.146912%, 34.910583%)" fill-opacity="1" d="M 1722.390625 0.671875 C 1730.628906 33.960938 1741.621094 64.890625 1753.660156 91.539062 C 1773.878906 77.519531 1790.28125 73.71875 1819.898438 73.960938 C 1794.839844 80.671875 1776.320312 93.191406 1761.929688 108.71875 C 1781.109375 146.878906 1801.609375 174.078125 1816.640625 183.128906 L 1816.640625 183.089844 C 1839.050781 182.671875 1884.679688 161.550781 1933.691406 124.808594 C 1932.070312 92.5 1922.621094 59.769531 1900.101562 26.339844 C 1935.121094 42.578125 1942.609375 61.339844 1959.058594 104.570312 C 1991.851562 76.820312 2024.601562 42.640625 2051.609375 3.421875 C 2051.609375 2.519531 2051.550781 1.570312 2051.539062 0.660156 Z M 1722.390625 0.671875 "/>
<path fill-rule="nonzero" fill="rgb(49.414062%, 58.789062%, 38.035583%)" fill-opacity="1" d="M 1722.390625 0.671875 C 1723.800781 6.289062 1725.25 11.859375 1726.800781 17.339844 C 1771.378906 4.371094 1817.230469 -0.699219 1864.648438 3.851562 L 1865.511719 0.671875 Z M 1864.648438 3.851562 C 1895.128906 43.941406 1915.261719 96.210938 1914.828125 138.308594 C 1921.03125 134.078125 1927.320312 129.589844 1933.679688 124.820312 C 1932.589844 102.960938 1927.890625 80.910156 1918 58.589844 C 1905.230469 32.949219 1888.820312 12.691406 1864.648438 3.851562 Z M 2032.28125 0.671875 C 2034.429688 5.75 2036.480469 10.941406 2038.398438 16.328125 L 2038.398438 16.371094 L 2042.300781 16.371094 C 2045.460938 12.109375 2048.578125 7.800781 2051.609375 3.398438 C 2051.609375 2.511719 2051.539062 1.578125 2051.539062 0.679688 Z M 2032.28125 0.671875 "/>
<path fill-rule="nonzero" fill="rgb(73.242188%, 61.914062%, 53.318787%)" fill-opacity="1" d="M 2625.128906 1394.703125 C 2565.320312 1406.664062 2510.628906 1437.132812 2462.171875 1473.738281 C 2412.421875 1511.316406 2368.328125 1555.425781 2322.421875 1597.054688 C 2276.519531 1638.675781 2228.058594 1678.289062 2172.570312 1705.015625 C 2117.109375 1731.757812 2053.519531 1744.890625 1993.730469 1731.769531 C 1925.488281 1716.792969 1868.820312 1669.898438 1814.710938 1624.226562 C 1760.558594 1578.527344 1702.929688 1531 1632.671875 1516.175781 C 1586.730469 1506.484375 1538.441406 1511.910156 1494.339844 1527.5 C 1450.25 1543.085938 1410.230469 1568.503906 1374.578125 1598.472656 C 1303.28125 1658.398438 1249.53125 1735.5625 1188.671875 1805.0625 C 1163.210938 1834.136719 1136.328125 1861.941406 1108.21875 1888.441406 L 1116.941406 1888.441406 C 1143.519531 1863.125 1169 1836.660156 1193.191406 1809.035156 C 1254.351562 1739.195312 1307.960938 1662.335938 1378.441406 1603.089844 C 1413.679688 1573.472656 1453.128906 1548.460938 1496.351562 1533.179688 C 1539.558594 1517.902344 1586.789062 1512.652344 1631.449219 1522.078125 C 1699.808594 1536.496094 1756.71875 1583.179688 1810.828125 1628.84375 C 1864.96875 1674.539062 1922.320312 1722.257812 1992.441406 1737.644531 C 2053.921875 1751.136719 2118.789062 1737.644531 2175.179688 1710.4375 C 2231.53125 1683.300781 2280.390625 1643.304688 2326.449219 1601.546875 C 2372.511719 1559.785156 2416.511719 1515.789062 2465.820312 1478.542969 C 2513.488281 1442.53125 2567.019531 1412.746094 2625.128906 1400.871094 Z M 2625.128906 1394.703125 "/>
<path fill-rule="nonzero" fill="rgb(38.035583%, 44.309998%, 30.589294%)" fill-opacity="1" d="M 1722.390625 0.671875 C 1722.390625 0.75 1722.429688 0.820312 1722.441406 0.890625 C 1723.199219 0.820312 1723.96875 0.75 1724.730469 0.671875 Z M 1864.621094 0.671875 L 1848.28125 59.898438 C 1835.699219 64.5 1823.011719 69 1811.039062 74.179688 C 1813.890625 74.179688 1816.789062 74.011719 1819.910156 74.011719 C 1794.859375 80.71875 1776.339844 93.25 1761.960938 108.769531 C 1764.589844 114.019531 1767.261719 119 1769.929688 123.820312 C 1784.441406 117.308594 1807.878906 106.511719 1835.761719 105.199219 L 1830.070312 125.871094 C 1834.570312 109.769531 1841.761719 84.53125 1850.878906 52.820312 C 1854.160156 91.679688 1856.078125 131.199219 1852.621094 173.28125 C 1866.480469 167.429688 1882.429688 159.039062 1899.488281 148.339844 C 1891.488281 100.621094 1871.679688 73.660156 1853.308594 44.179688 C 1856.761719 32.191406 1860.699219 18.621094 1864.859375 4.320312 C 1883.238281 47.5 1902.820312 89.75 1909.679688 141.75 C 1914.371094 138.640625 1919.109375 135.390625 1923.910156 131.96875 C 1908.941406 74.121094 1885.839844 42.691406 1864.878906 4.25 C 1865.210938 3.121094 1865.601562 1.800781 1865.929688 0.671875 Z M 1852.621094 173.28125 L 1852.578125 173.28125 L 1852.621094 173.371094 C 1852.628906 173.328125 1852.621094 173.300781 1852.621094 173.269531 Z M 1946.921875 0.671875 C 1965.769531 20.609375 1981.328125 44.121094 1996.199219 70.128906 C 1997.589844 68.710938 1998.949219 67.25 2000.320312 65.808594 C 1988.949219 40.730469 1975.519531 19 1960.011719 0.671875 Z M 1961.570312 0.671875 C 1975.769531 17.179688 1989.050781 37.089844 2003.660156 62.328125 C 2003.910156 62.328125 2004.039062 61.921875 2004.238281 61.730469 C 1992.511719 38.21875 1980.238281 18.03125 1966.070312 0.671875 Z M 1976 0.671875 C 1987.941406 17.089844 1998.800781 35.820312 2008.398438 57.320312 C 2009.421875 56.230469 2010.398438 55.070312 2011.410156 53.960938 C 2002.898438 34.699219 1993.28125 16.898438 1982.441406 0.671875 Z M 1830.039062 125.789062 C 1824.078125 147.121094 1821.558594 156.511719 1821.558594 156.511719 Z M 1830.039062 125.789062 "/>
<path fill-rule="nonzero" fill="rgb(73.242188%, 61.914062%, 53.318787%)" fill-opacity="1" d="M 1041.488281 0.671875 C 1007.058594 68.339844 952.160156 125.710938 885.417969 161.949219 C 798.210938 209.308594 691.757812 220.121094 596.8125 191.261719 C 526.28125 169.820312 462.15625 127.449219 388.90625 111.121094 C 352.257812 102.960938 313.179688 101.699219 277.199219 113.511719 C 259.207031 119.410156 242.183594 128.589844 227.757812 140.980469 C 213.328125 153.378906 201.566406 169.039062 194.386719 186.738281 C 183.492188 213.609375 183.613281 243.421875 187.640625 271.621094 C 191.664062 299.808594 199.371094 327.109375 203.609375 354.738281 C 216.828125 440.929688 195.0625 532.058594 144.292969 602.960938 C 107.753906 653.988281 56.394531 694.101562 -1.515625 718.308594 L -1.515625 724.859375 C 58.378906 700.351562 111.480469 659.140625 149.195312 606.46875 C 200.914062 534.25 223.050781 441.621094 209.585938 353.820312 C 205.273438 325.699219 197.554688 298.429688 193.609375 270.78125 C 189.667969 243.148438 189.664062 214.398438 199.960938 189 C 206.746094 172.269531 217.941406 157.339844 231.695312 145.519531 C 245.453125 133.699219 261.761719 124.941406 279.070312 119.261719 C 313.699219 107.890625 351.699219 109.03125 387.582031 117.03125 C 459.390625 133.03125 523.410156 175.25 595.070312 197.03125 C 691.613281 226.378906 799.609375 215.398438 888.285156 167.25 C 957.054688 129.898438 1013.390625 70.621094 1048.25 0.671875 Z M 1041.488281 0.671875 "/>
<path fill-rule="nonzero" fill="rgb(73.242188%, 61.914062%, 53.318787%)" fill-opacity="1" d="M 2508.359375 1688.070312 C 2471.160156 1688.070312 2440.929688 1718.304688 2440.929688 1755.492188 C 2440.929688 1792.679688 2471.160156 1822.882812 2508.359375 1822.882812 C 2545.539062 1822.882812 2575.738281 1792.679688 2575.738281 1755.492188 C 2575.738281 1718.304688 2545.539062 1688.070312 2508.359375 1688.070312 Z M 2508.359375 1694.105469 C 2542.28125 1694.105469 2569.710938 1721.5625 2569.710938 1755.492188 C 2569.710938 1789.421875 2542.28125 1816.847656 2508.359375 1816.847656 C 2474.429688 1816.847656 2446.96875 1789.421875 2446.96875 1755.492188 C 2446.96875 1721.5625 2474.429688 1694.105469 2508.359375 1694.105469 Z M 2508.359375 1694.105469 "/>
<path fill-rule="nonzero" fill="rgb(100%, 99.21875%, 98.4375%)" fill-opacity="1" d="M 481.328125 330.128906 C 481.328125 365.691406 452.5 394.519531 416.941406 394.519531 C 399.867188 394.519531 383.488281 387.730469 371.414062 375.660156 C 359.339844 363.578125 352.558594 347.210938 352.558594 330.128906 C 352.558594 313.058594 359.339844 296.679688 371.414062 284.601562 C 383.488281 272.53125 399.867188 265.75 416.941406 265.75 C 452.5 265.75 481.328125 294.570312 481.328125 330.128906 Z M 481.328125 330.128906 "/>
</svg>
